<?xml version="1.0" encoding="UTF-8"?>
<svg id="Layer_2" data-name="Layer 2" xmlns="http://www.w3.org/2000/svg" xmlns:xlink="http://www.w3.org/1999/xlink" viewBox="0 0 999.44 999.39">
  <defs>
    <style>
      .cls-1 {
        fill: #fff;
      }

      .cls-2 {
        fill: url(#linear-gradient);
      }
    </style>
    <linearGradient id="linear-gradient" x1="749.61" y1="66.86" x2="249.82" y2="932.53" gradientUnits="userSpaceOnUse">
      <stop offset="0" stop-color="#87c541"/>
      <stop offset="1" stop-color="#046937"/>
    </linearGradient>
  </defs>
  <g id="Layer_1-2" data-name="Layer 1">
    <g>
      <rect class="cls-2" x="0" y="0" width="999.44" height="999.39" rx="499.7" ry="499.7"/>
      <path class="cls-1" d="M189.85,797.75c4.19-.34,6.92-.35,9.58-.82,50.36-8.85,100.72-17.73,151.07-26.65,83.12-14.72,166.26-29.36,249.34-44.27,26.77-4.81,54.07-8.2,79.99-16,71.52-21.52,124.3-88.46,129.29-163.56,2.81-42.31-10.56-79.52-44.24-107.24-31.83-26.19-69-31.53-108.36-24.62-143.35,25.14-286.65,50.6-429.96,75.97-10.43,1.85-20.81,3.94-30.99,5.87,0,2.05-.17,2.91,.02,3.67,12.61,48.53,58.17,84.86,108.48,87.36,22.02,1.09,43.28-3.06,64.68-6.85,82.89-14.67,165.77-29.38,248.67-44,15.16-2.68,30.3-6.05,45.6-7.28,21.36-1.72,35.87,16.51,30.61,37.33-4.86,19.24-17.34,30.86-36.91,34.43-26.51,4.84-53.06,9.49-79.61,14.17-79.63,14.06-159.31,27.85-238.87,42.33-20.74,3.78-42.41,6.73-61.38,15.17-52.97,23.58-81.3,66.01-87.02,125ZM809.59,201.64c-2.08,.13-2.91,.1-3.71,.24-71.53,12.59-143.06,25.17-214.59,37.79-79.67,14.06-159.29,28.4-239.01,42.14-77.93,13.43-128.65,58.27-154.68,132.19-1.12,3.18-1.66,6.56-2.65,10.56,2.71-.34,4.05-.45,5.37-.68,71-12.48,142-24.94,212.98-37.46,89.15-15.73,178.16-32.24,267.46-47.02,55.31-9.15,94.76-37.63,118.08-88.42,7.06-15.37,10.34-31.71,10.73-49.33Z"/>
    </g>
  </g>
</svg>